<svg width="187" height="187" viewBox="0 0 187 187" fill="none" xmlns="http://www.w3.org/2000/svg">
<path d="M47.002 41.0449C55.0705 41.0449 61.6113 34.5041 61.6113 26.4355C61.6113 18.367 55.0705 11.8262 47.002 11.8262C38.9334 11.8262 32.3926 18.367 32.3926 26.4355C32.3926 34.5041 38.9334 41.0449 47.002 41.0449Z" fill="#FEBE76"/>
<path d="M34.2188 30.8184C34.2188 22.7503 40.7601 16.209 48.8281 16.209C54.0554 16.209 58.6387 18.9566 61.2205 23.0845C59.7052 16.6323 53.9162 11.8262 47.002 11.8262C38.9339 11.8262 32.3926 18.3675 32.3926 26.4355C32.3926 29.2763 33.2063 31.9261 34.6096 34.1694C34.3568 33.093 34.2188 31.9721 34.2188 30.8184Z" fill="#E8A664"/>
<path d="M47.002 154.268H32.3926V110.439H21.4355V65.8809C21.4355 58.2146 27.6482 52.002 35.3145 52.002H58.6895C66.3557 52.002 72.5684 58.2146 72.5684 65.8809V110.439H61.6113V128.701V154.268H47.002Z" fill="#A8CFFF"/>
<path d="M24.6313 69.168C24.6313 61.5017 30.844 55.2891 38.5103 55.2891H61.8853C64.9602 55.2891 67.7999 56.2902 70.1001 57.9823C67.5946 54.369 63.42 52.002 58.6895 52.002H35.3145C27.6482 52.002 21.4355 58.2146 21.4355 65.8809V110.439H24.6313V69.168Z" fill="#8BBAE8"/>
<path d="M35.5884 113.727H32.3926V154.268H35.5884V113.727Z" fill="#8BBAE8"/>
<path d="M50.6543 84.873H43.3496V92.1777H50.6543V84.873Z" fill="black"/>
<path d="M50.6543 73.916H43.3496V81.2207H50.6543V73.916Z" fill="black"/>
<path d="M50.6543 62.959H43.3496V70.2637H50.6543V62.959Z" fill="black"/>
<path d="M61.6113 156.094C60.6029 156.094 59.7852 155.276 59.7852 154.268V110.439C59.7852 109.431 60.6029 108.613 61.6113 108.613H70.7422V65.8809C70.7422 59.2351 65.3353 53.8281 58.6895 53.8281H35.3145C28.6686 53.8281 23.2617 59.2351 23.2617 65.8809V108.613H32.3926C33.401 108.613 34.2188 109.431 34.2188 110.439V154.268C34.2188 155.276 33.401 156.094 32.3926 156.094C31.3842 156.094 30.5664 155.276 30.5664 154.268V112.266H21.4355C20.4271 112.266 19.6094 111.448 19.6094 110.439V65.8809C19.6094 57.2212 26.6547 50.1758 35.3145 50.1758H58.6895C67.3492 50.1758 74.3945 57.2212 74.3945 65.8809V110.439C74.3945 111.448 73.5768 112.266 72.5684 112.266H63.4375V154.268C63.4375 155.276 62.6197 156.094 61.6113 156.094Z" fill="black"/>
<path d="M47.002 156.094C45.9935 156.094 45.1758 155.276 45.1758 154.268V117.744C45.1758 116.735 45.9935 115.918 47.002 115.918C48.0104 115.918 48.8281 116.735 48.8281 117.744V154.268C48.8281 155.276 48.0104 156.094 47.002 156.094Z" fill="black"/>
<path d="M47.002 42.8711C37.9394 42.8711 30.5664 35.4981 30.5664 26.4355C30.5664 17.373 37.9394 10 47.002 10C56.0645 10 63.4375 17.373 63.4375 26.4355C63.4375 35.4981 56.0645 42.8711 47.002 42.8711ZM47.002 13.6523C39.9533 13.6523 34.2188 19.3869 34.2188 26.4355C34.2188 33.4842 39.9533 39.2188 47.002 39.2188C54.0506 39.2188 59.7852 33.4842 59.7852 26.4355C59.7852 19.3869 54.0506 13.6523 47.002 13.6523Z" fill="black"/>
<path d="M172.398 130.527H61.6113C60.6029 130.527 59.7852 129.71 59.7852 128.701C59.7852 127.692 60.6029 126.875 61.6113 126.875H170.572V28.2617H61.6113C60.6029 28.2617 59.7852 27.444 59.7852 26.4355C59.7852 25.4271 60.6029 24.6094 61.6113 24.6094H172.398C173.407 24.6094 174.224 25.4271 174.224 26.4355V128.701C174.224 129.71 173.407 130.527 172.398 130.527Z" fill="black"/>
<path d="M172.398 115.918H91.44C90.4316 115.918 89.6138 115.101 89.6138 114.092C89.6138 113.083 90.4316 112.266 91.44 112.266H172.398C173.407 112.266 174.224 113.083 174.224 114.092C174.224 115.101 173.407 115.918 172.398 115.918Z" fill="black"/>
<path d="M163.877 156.094H6.82617C5.81776 156.094 5 155.276 5 154.268C5 153.259 5.81776 152.441 6.82617 152.441H163.877C164.886 152.441 165.703 153.259 165.703 154.268C165.703 155.276 164.886 156.094 163.877 156.094Z" fill="black"/>
<path d="M141.963 94.0039H98.1348C97.126 94.0039 96.3086 93.1865 96.3086 92.1777C96.3086 91.169 97.126 90.3516 98.1348 90.3516H141.963C142.972 90.3516 143.789 91.169 143.789 92.1777C143.789 93.1865 142.972 94.0039 141.963 94.0039Z" fill="black"/>
</svg>
