<svg width="126" height="50" viewBox="0 0 126 50" fill="none" xmlns="http://www.w3.org/2000/svg">
<g clip-path="url(#clip0)">
<path d="M3.75507 34.0875L33.8708 23.6802V10.181L3.75507 20.5882V34.0875Z" fill="url(#paint0_linear)"/>
<path d="M41.2683 11.8703H38.2267L38.2342 17.0739H36.7622V10.6637H41.2683V11.8703Z" fill="#012C9E"/>
<path d="M43.5364 16.7496C43.0032 16.463 42.5901 16.0709 42.2897 15.5656C41.9893 15.0603 41.8391 14.4947 41.8391 13.8688C41.8391 13.2428 41.9893 12.6772 42.2897 12.1719C42.5901 11.6667 43.0107 11.2745 43.5364 10.9879C44.0696 10.7014 44.6629 10.5581 45.3313 10.5581C45.9922 10.5581 46.593 10.7014 47.1188 10.9879C47.6445 11.2745 48.065 11.6667 48.3654 12.1719C48.6658 12.6772 48.8236 13.2428 48.8236 13.8688C48.8236 14.4947 48.6734 15.0603 48.3654 15.5656C48.065 16.0709 47.6445 16.463 47.1188 16.7496C46.593 17.0362 45.9922 17.1795 45.3313 17.1795C44.6629 17.187 44.0696 17.0437 43.5364 16.7496ZM46.3452 15.6561C46.6456 15.4827 46.8859 15.2413 47.0587 14.9246C47.2314 14.6154 47.3215 14.2609 47.3215 13.8612C47.3215 13.4615 47.2314 13.1071 47.0587 12.7979C46.8859 12.4887 46.6456 12.2474 46.3452 12.0664C46.0448 11.8929 45.6993 11.8024 45.3238 11.8024C44.9483 11.8024 44.6029 11.8929 44.3024 12.0664C44.002 12.2398 43.7617 12.4811 43.589 12.7979C43.4162 13.1146 43.3261 13.4615 43.3261 13.8612C43.3261 14.2609 43.4162 14.6154 43.589 14.9246C43.7617 15.2338 44.002 15.4751 44.3024 15.6561C44.6029 15.8296 44.9483 15.9201 45.3238 15.9201C45.7068 15.9201 46.0448 15.8296 46.3452 15.6561Z" fill="#012C9E"/>
<path d="M54.3285 10.9427C54.7416 11.1312 55.0645 11.4027 55.2898 11.7496C55.5151 12.0965 55.6278 12.5113 55.6278 12.9864C55.6278 13.454 55.5151 13.8688 55.2898 14.2157C55.0645 14.5701 54.7416 14.8341 54.3285 15.0226C53.9154 15.2112 53.4198 15.3017 52.8565 15.3017H51.5723V17.0664H50.0928V10.6561H52.8565C53.4198 10.6636 53.9079 10.7541 54.3285 10.9427ZM53.7878 13.8084C54.0206 13.6124 54.1332 13.3409 54.1332 12.9864C54.1332 12.6244 54.0206 12.3529 53.7878 12.1569C53.555 11.9608 53.217 11.8703 52.7739 11.8703H51.5723V14.095H52.7739C53.217 14.095 53.555 14.0045 53.7878 13.8084Z" fill="#012C9E"/>
<path d="M58.2338 16.7496C57.7005 16.463 57.2875 16.0709 56.9871 15.5656C56.6867 15.0603 56.5365 14.4947 56.5365 13.8688C56.5365 13.2428 56.6867 12.6772 56.9871 12.1719C57.2875 11.6667 57.7081 11.2745 58.2338 10.9879C58.767 10.7014 59.3603 10.5581 60.0287 10.5581C60.6896 10.5581 61.2904 10.7014 61.8161 10.9879C62.3418 11.2745 62.7624 11.6667 63.0628 12.1719C63.3632 12.6772 63.5209 13.2428 63.5209 13.8688C63.5209 14.4947 63.3707 15.0603 63.0628 15.5656C62.7624 16.0709 62.3418 16.463 61.8161 16.7496C61.2904 17.0362 60.6896 17.1795 60.0287 17.1795C59.3678 17.187 58.767 17.0437 58.2338 16.7496ZM61.0501 15.6561C61.3505 15.4827 61.5908 15.2413 61.7636 14.9246C61.9363 14.6154 62.0264 14.2609 62.0264 13.8612C62.0264 13.4615 61.9363 13.1071 61.7636 12.7979C61.5908 12.4887 61.3505 12.2474 61.0501 12.0664C60.7497 11.8929 60.4042 11.8024 60.0287 11.8024C59.6532 11.8024 59.3077 11.8929 59.0073 12.0664C58.7069 12.2398 58.4666 12.4811 58.2939 12.7979C58.1211 13.1071 58.031 13.4615 58.031 13.8612C58.031 14.2609 58.1211 14.6154 58.2939 14.9246C58.4666 15.2338 58.7069 15.4751 59.0073 15.6561C59.3077 15.8296 59.6532 15.9201 60.0287 15.9201C60.4042 15.9201 60.7422 15.8296 61.0501 15.6561Z" fill="#012C9E"/>
<path d="M71.3315 15.8673V18.4012H69.9646V17.0739H65.4586V18.4012H64.0917L64.0992 15.8673H64.3546C64.7376 15.8522 65.0079 15.5732 65.1657 15.0226C65.3234 14.4721 65.421 13.6878 65.4586 12.6697L65.5337 10.6637H70.4378V15.8673H71.3315V15.8673ZM66.5701 14.721C66.4724 15.2338 66.3222 15.6184 66.1194 15.8597H68.9733V11.8703H66.7879L66.7578 12.8054C66.7278 13.5671 66.6677 14.2081 66.5701 14.721Z" fill="#012C9E"/>
<path d="M73.6221 16.7572C73.0964 16.4706 72.6833 16.0784 72.3829 15.5731C72.0825 15.0679 71.9323 14.5023 71.9323 13.8688C71.9323 13.2353 72.0825 12.6621 72.3829 12.1644C72.6833 11.6591 73.0964 11.267 73.6221 10.9804C74.1478 10.6938 74.7411 10.5581 75.3945 10.5581C75.9503 10.5581 76.4459 10.6561 76.8965 10.8522C77.3471 11.0483 77.7151 11.3273 78.0231 11.6968L77.0768 12.5792C76.6487 12.0814 76.108 11.825 75.4696 11.825C75.0716 11.825 74.7186 11.9155 74.4107 12.089C74.1027 12.2624 73.8624 12.5038 73.6822 12.8205C73.5019 13.1373 73.4193 13.4842 73.4193 13.8839C73.4193 14.2836 73.5094 14.638 73.6822 14.9472C73.8549 15.2564 74.0952 15.4977 74.4107 15.6787C74.7261 15.8597 75.0716 15.9427 75.4696 15.9427C76.108 15.9427 76.6412 15.6863 77.0768 15.181L78.0231 16.0633C77.7226 16.4329 77.3396 16.7194 76.889 16.9155C76.4384 17.1116 75.9352 17.2096 75.387 17.2096C74.7411 17.187 74.1478 17.0437 73.6221 16.7572Z" fill="#012C9E"/>
<path d="M81.5829 14.4872H80.5615V17.0664H79.0895V10.6561H80.5615V13.2504H81.6204L83.2952 10.6561H84.8573L82.7695 13.7481L84.9249 17.0664H83.2501L81.5829 14.4872Z" fill="#012C9E"/>
<path d="M86.9451 16.7496C86.4119 16.463 85.9988 16.0709 85.6984 15.5656C85.398 15.0603 85.2478 14.4947 85.2478 13.8688C85.2478 13.2428 85.398 12.6772 85.6984 12.1719C85.9988 11.6667 86.4194 11.2745 86.9451 10.9879C87.4783 10.7014 88.0716 10.5581 88.74 10.5581C89.4009 10.5581 90.0017 10.7014 90.5275 10.9879C91.0532 11.2745 91.4737 11.6667 91.7741 12.1719C92.0745 12.6772 92.2323 13.2428 92.2323 13.8688C92.2323 14.4947 92.0821 15.0603 91.7741 15.5656C91.4737 16.0709 91.0532 16.463 90.5275 16.7496C90.0017 17.0362 89.4009 17.1795 88.74 17.1795C88.0716 17.187 87.4783 17.0437 86.9451 16.7496ZM89.7614 15.6561C90.0618 15.4827 90.3021 15.2413 90.4749 14.9246C90.6476 14.6154 90.7377 14.2609 90.7377 13.8612C90.7377 13.4615 90.6476 13.1071 90.4749 12.7979C90.3021 12.4887 90.0618 12.2474 89.7614 12.0664C89.461 11.8929 89.1155 11.8024 88.74 11.8024C88.3645 11.8024 88.0191 11.8929 87.7186 12.0664C87.4182 12.2398 87.1779 12.4811 87.0052 12.7979C86.8324 13.1071 86.7423 13.4615 86.7423 13.8612C86.7423 14.2609 86.8324 14.6154 87.0052 14.9246C87.1779 15.2338 87.4182 15.4751 87.7186 15.6561C88.0191 15.8296 88.3645 15.9201 88.74 15.9201C89.1155 15.9201 89.4535 15.8296 89.7614 15.6561Z" fill="#012C9E"/>
<path d="M93.5015 10.6636H94.9735V14.8416L98.0226 10.6636H99.412V17.0739H97.955V12.9035L94.9059 17.0739H93.5015V10.6636ZM94.6806 8.84615H95.6945C95.7095 9.2911 95.9573 9.51734 96.453 9.51734C96.6933 9.51734 96.8811 9.46455 97.0087 9.35143C97.1364 9.23831 97.204 9.0724 97.2115 8.85369H98.2254C98.2179 9.31372 98.0677 9.66063 97.7748 9.89442C97.4819 10.1357 97.0388 10.2489 96.453 10.2489C95.2814 10.2489 94.6881 9.7813 94.6806 8.84615Z" fill="#012C9E"/>
<path d="M39.2406 23.5596H38.2192V26.1388H36.7472V19.7285H38.2192V22.3228H39.2781L40.9529 19.7285H42.515L40.4272 22.8205L42.5826 26.1388H40.9079L39.2406 23.5596Z" fill="#012C9E"/>
<path d="M44.6028 25.822C44.0696 25.5354 43.6566 25.1433 43.3562 24.638C43.0558 24.1327 42.9055 23.5671 42.9055 22.9412C42.9055 22.3152 43.0558 21.7496 43.3562 21.2443C43.6566 20.7391 44.0771 20.3469 44.6028 20.0603C45.1361 19.7738 45.7294 19.6305 46.3978 19.6305C47.0587 19.6305 47.6595 19.7738 48.1852 20.0603C48.7109 20.3469 49.1315 20.7391 49.4319 21.2443C49.7323 21.7496 49.89 22.3152 49.89 22.9412C49.89 23.5671 49.7398 24.1327 49.4319 24.638C49.1315 25.1433 48.7109 25.5354 48.1852 25.822C47.6595 26.1086 47.0587 26.2519 46.3978 26.2519C45.7294 26.2519 45.1361 26.1086 44.6028 25.822ZM47.4116 24.7285C47.712 24.555 47.9524 24.3137 48.1251 23.997C48.2978 23.6878 48.388 23.3333 48.388 22.9336C48.388 22.5339 48.2978 22.1795 48.1251 21.8703C47.9524 21.5611 47.712 21.3198 47.4116 21.1388C47.1112 20.9653 46.7658 20.8748 46.3903 20.8748C46.0148 20.8748 45.6693 20.9653 45.3689 21.1388C45.0685 21.3122 44.8281 21.5535 44.6554 21.8703C44.4827 22.187 44.3926 22.5339 44.3926 22.9336C44.3926 23.3333 44.4827 23.6878 44.6554 23.997C44.8281 24.3062 45.0685 24.5475 45.3689 24.7285C45.6693 24.902 46.0148 24.9925 46.3903 24.9925C46.7733 24.9849 47.1112 24.902 47.4116 24.7285Z" fill="#012C9E"/>
<path d="M57.0096 19.7285V26.1388H55.5301V23.5068H52.6312V26.1388H51.1517V19.7285H52.6312V22.2549H55.5301V19.7285H57.0096Z" fill="#012C9E"/>
<path d="M61.1778 23.5596H60.1564V26.1388H58.6844V19.7285H60.1564V22.3228H61.2078L62.8826 19.7285H64.4447L62.3568 22.8205L64.5123 26.1388H62.8375L61.1778 23.5596Z" fill="#012C9E"/>
<path d="M71.6769 19.7285L68.9583 24.8039C68.6954 25.2941 68.38 25.6637 68.012 25.9125C67.644 26.1614 67.246 26.2896 66.8104 26.2896C66.4724 26.2896 66.1269 26.2142 65.774 26.0709L66.1269 24.9472C66.3823 25.0302 66.5926 25.0679 66.7653 25.0679C66.9455 25.0679 67.1108 25.0226 67.261 24.9321C67.4037 24.8416 67.5389 24.7059 67.659 24.5173L67.7116 24.4419L65.1957 19.736H66.7728L68.4701 23.1825L70.22 19.736H71.6769V19.7285Z" fill="#012C9E"/>
<path d="M76.9416 20.0151C77.3546 20.2036 77.6776 20.4751 77.9029 20.822C78.1282 21.1689 78.2408 21.5837 78.2408 22.0588C78.2408 22.5264 78.1282 22.9412 77.9029 23.2881C77.6776 23.6425 77.3546 23.9065 76.9416 24.095C76.5285 24.2836 76.0328 24.3741 75.4696 24.3741H74.1853V26.1388H72.7058V19.7285H75.4696C76.0328 19.7285 76.5285 19.8265 76.9416 20.0151ZM76.4008 22.8733C76.6336 22.6772 76.7463 22.4057 76.7463 22.0513C76.7463 21.6893 76.6336 21.4178 76.4008 21.2217C76.168 21.0256 75.83 20.9351 75.3869 20.9351H74.1853V23.1599H75.3869C75.83 23.1674 76.168 23.0694 76.4008 22.8733Z" fill="#012C9E"/>
<path d="M80.8468 25.822C80.3211 25.5354 79.9081 25.1433 79.6077 24.638C79.3072 24.1327 79.157 23.5671 79.157 22.9336C79.157 22.3001 79.3072 21.727 79.6077 21.2293C79.9081 20.724 80.3211 20.3318 80.8468 20.0452C81.3725 19.7587 81.9658 19.6229 82.6192 19.6229C83.175 19.6229 83.6706 19.721 84.1213 19.917C84.5719 20.1131 84.9399 20.3922 85.2478 20.7617L84.3015 21.644C83.8659 21.1463 83.3327 20.8899 82.6943 20.8899C82.2963 20.8899 81.9433 20.9804 81.6354 21.1538C81.3275 21.3273 81.0872 21.5686 80.9069 21.8854C80.7342 22.1946 80.6441 22.549 80.6441 22.9487C80.6441 23.3484 80.7342 23.7029 80.9069 24.0121C81.0796 24.3213 81.32 24.5626 81.6354 24.7436C81.9433 24.917 82.2963 25.0075 82.6943 25.0075C83.3327 25.0075 83.8659 24.7511 84.3015 24.2459L85.2478 25.1282C84.9474 25.4977 84.5644 25.7843 84.1137 25.9804C83.6631 26.1765 83.16 26.2745 82.6117 26.2745C81.9583 26.2519 81.3725 26.1086 80.8468 25.822Z" fill="#012C9E"/>
<path d="M39.7062 28.8914V32.7376H39.173V29.3665H37.4757L37.4381 30.4902C37.4231 31.0181 37.3781 31.4555 37.3105 31.7798C37.2429 32.1116 37.1377 32.3605 36.9875 32.5264C36.8448 32.6923 36.6421 32.7753 36.3942 32.7753C36.2816 32.7753 36.1689 32.7602 36.0488 32.73L36.0863 32.2398C36.1464 32.2549 36.2065 32.2624 36.2591 32.2624C36.4168 32.2624 36.5444 32.2021 36.6346 32.0739C36.7322 31.9457 36.7998 31.7572 36.8448 31.5083C36.8899 31.2519 36.9199 30.9201 36.935 30.5053L36.995 28.8839H39.7062V28.8914Z" fill="#012C9E"/>
<path d="M44.2499 28.8914L42.5451 32.0588C42.4099 32.3152 42.2522 32.5038 42.0719 32.6244C41.8917 32.7526 41.6889 32.813 41.4786 32.813C41.3134 32.813 41.1407 32.7753 40.9679 32.6998L41.1106 32.2624C41.2458 32.3077 41.366 32.3303 41.4711 32.3303C41.7114 32.3303 41.9142 32.2021 42.0644 31.9457L42.1545 31.8099L40.615 28.8914H41.2008L42.4399 31.3348L43.7167 28.8914H44.2499V28.8914Z" fill="#012C9E"/>
<path d="M48.1326 28.8914V32.7375H47.5919V31.2142C47.1863 31.3725 46.8108 31.448 46.4729 31.448C46.0072 31.448 45.6468 31.3348 45.3839 31.1086C45.1286 30.8823 45.0009 30.5581 45.0009 30.1357V28.8914H45.5341V30.0754C45.5341 30.362 45.6242 30.5807 45.797 30.7315C45.9697 30.8823 46.2175 30.9653 46.533 30.9653C46.8859 30.9653 47.2389 30.8823 47.5919 30.724V28.8914H48.1326V28.8914Z" fill="#012C9E"/>
<path d="M54.2534 28.8914V32.7375H49.4544V28.8914H49.9951V32.2624H51.5873V28.8914H52.1205V32.2624H53.7127V28.8914H54.2534Z" fill="#012C9E"/>
<path d="M55.5677 28.8914H56.1084V31.8552L58.3765 28.8914H58.8797V32.7375H58.3464V29.7737L56.0784 32.7375H55.5752V28.8914H55.5677Z" fill="#012C9E"/>
<path d="M60.5019 28.8914L61.5007 30.3016L62.4995 28.8914H63.1379L61.8387 30.7391L63.243 32.7375H62.5972L61.5082 31.1991L60.4117 32.73H59.7809L61.1778 30.7541L59.8785 28.8839H60.5019V28.8914Z" fill="#012C9E"/>
<path d="M69.2061 31.0709C69.3413 31.2293 69.4089 31.4329 69.4089 31.6818C69.4089 32.0136 69.2888 32.27 69.0484 32.4585C68.8081 32.6395 68.4551 32.73 67.9895 32.73H66.2396V28.8839H67.8844C68.3049 28.8839 68.6279 28.9668 68.8682 29.1403C69.101 29.3137 69.2212 29.555 69.2212 29.8718C69.2212 30.083 69.1686 30.2564 69.0634 30.4072C68.9583 30.5505 68.8156 30.6636 68.6203 30.7391C68.8757 30.7994 69.0785 30.9125 69.2061 31.0709ZM66.7728 30.5807H67.8393C68.1021 30.5807 68.3124 30.5279 68.4476 30.4223C68.5903 30.3167 68.6579 30.1584 68.6579 29.9547C68.6579 29.7511 68.5903 29.5928 68.4476 29.4872C68.3049 29.3816 68.1021 29.3288 67.8393 29.3288H66.7728V30.5807ZM68.8532 31.644C68.8532 31.4253 68.7781 31.2594 68.6279 31.1614C68.4777 31.0558 68.2599 31.003 67.967 31.003H66.7653V32.3077H67.967C68.5603 32.3002 68.8532 32.0815 68.8532 31.644Z" fill="#012C9E"/>
<path d="M71.2188 32.5264C70.9109 32.3529 70.6631 32.1191 70.4904 31.8175C70.3101 31.5158 70.2275 31.184 70.2275 30.8145C70.2275 30.4449 70.3176 30.1056 70.4904 29.8115C70.6706 29.5098 70.9109 29.276 71.2188 29.1026C71.5268 28.9291 71.8797 28.8462 72.2628 28.8462C72.6458 28.8462 72.9912 28.9291 73.2992 29.1026C73.6071 29.276 73.8549 29.5098 74.0276 29.8039C74.2004 30.1056 74.2905 30.4374 74.2905 30.8145C74.2905 31.1916 74.2004 31.5234 74.0276 31.825C73.8549 32.1267 73.6071 32.3605 73.2992 32.5264C72.9912 32.6923 72.6458 32.7828 72.2628 32.7828C71.8797 32.7753 71.5268 32.6923 71.2188 32.5264ZM73.0213 32.0965C73.2466 31.9683 73.4193 31.7949 73.5545 31.5686C73.6822 31.3424 73.7498 31.0935 73.7498 30.8145C73.7498 30.5354 73.6822 30.2866 73.5545 30.0603C73.4268 29.8341 73.2466 29.6606 73.0213 29.5324C72.796 29.4042 72.5406 29.3439 72.2628 29.3439C71.9849 29.3439 71.7295 29.4118 71.4967 29.5324C71.2714 29.6606 71.0912 29.8341 70.9635 30.0603C70.8358 30.2866 70.7682 30.5354 70.7682 30.8145C70.7682 31.0935 70.8358 31.3424 70.9635 31.5686C71.0912 31.7949 71.2714 31.9683 71.4967 32.0965C71.722 32.2247 71.9774 32.2851 72.2628 32.2851C72.5406 32.2926 72.796 32.2247 73.0213 32.0965Z" fill="#012C9E"/>
<path d="M76.1305 32.5264C75.8226 32.3529 75.5823 32.1192 75.402 31.825C75.2293 31.5234 75.1392 31.1916 75.1392 30.8145C75.1392 30.4374 75.2293 30.1056 75.402 29.8039C75.5747 29.5023 75.8226 29.2685 76.1305 29.1026C76.4384 28.9291 76.7839 28.8462 77.1669 28.8462C77.4673 28.8462 77.7377 28.899 77.9855 28.997C78.2333 29.095 78.4436 29.2459 78.6239 29.4419L78.2709 29.7888C77.9855 29.4872 77.625 29.3364 77.1894 29.3364C76.904 29.3364 76.6487 29.4042 76.4159 29.5249C76.1831 29.6531 76.0028 29.8265 75.8752 30.0528C75.7475 30.279 75.6799 30.5279 75.6799 30.8069C75.6799 31.086 75.7475 31.3348 75.8752 31.5611C76.0028 31.7873 76.1831 31.9608 76.4159 32.089C76.6487 32.2172 76.904 32.2775 77.1894 32.2775C77.6175 32.2775 77.978 32.1267 78.2709 31.8175L78.6239 32.1644C78.4511 32.3605 78.2333 32.5113 77.9855 32.6169C77.7377 32.7225 77.4598 32.7677 77.1594 32.7677C76.7839 32.7753 76.4384 32.6923 76.1305 32.5264Z" fill="#012C9E"/>
<path d="M82.8596 28.8914V32.7375H82.3264V29.3665H80.1033V32.7375H79.5626V28.8914H82.8596Z" fill="#012C9E"/>
<path d="M84.1739 28.8914H84.7146V31.8552L86.9827 28.8914H87.4858V32.7375H86.9526V29.7737L84.6845 32.7375H84.1814V28.8914H84.1739Z" fill="#012C9E"/>
<path d="M91.5338 29.3665H90.2195V32.7375H89.6863V29.3665H88.3795V28.8914H91.5338V29.3665Z" fill="#012C9E"/>
<path d="M94.4928 31.7722H92.4576L92.037 32.7375H91.4737L93.2086 28.8914H93.7493L95.4917 32.7375H94.9134L94.4928 31.7722ZM94.2975 31.3348L93.4714 29.4495L92.6453 31.3348H94.2975Z" fill="#012C9E"/>
<path d="M98.5783 29.3665H97.2641V32.7375H96.7308V29.3665H95.4241V28.8914H98.5783V29.3665Z" fill="#012C9E"/>
<path d="M102.251 32.2549V32.73H99.472V28.8839H102.176V29.359H100.02V30.543H101.943V31.0106H100.02V32.2549H102.251Z" fill="#012C9E"/>
<path d="M106.652 28.8914V32.7376H106.119V29.3665H104.421L104.384 30.4902C104.369 31.0181 104.324 31.4555 104.256 31.7798C104.188 32.1116 104.083 32.3605 103.933 32.5264C103.79 32.6923 103.588 32.7753 103.34 32.7753C103.227 32.7753 103.114 32.7602 102.994 32.73L103.032 32.2398C103.092 32.2549 103.152 32.2624 103.205 32.2624C103.362 32.2624 103.49 32.2021 103.58 32.0739C103.678 31.9457 103.745 31.7572 103.79 31.5083C103.835 31.2519 103.865 30.9201 103.881 30.5053L103.941 28.8839H106.652V28.8914Z" fill="#012C9E"/>
<path d="M110.7 30.5354C110.94 30.7391 111.06 31.0407 111.06 31.4404C111.06 31.8627 110.933 32.1795 110.67 32.4057C110.407 32.6244 110.039 32.7375 109.551 32.7375H107.966V28.8914H108.507V30.2338H109.648C110.106 30.2262 110.452 30.3318 110.7 30.5354ZM110.257 32.0814C110.429 31.9381 110.512 31.727 110.512 31.4555C110.512 30.9276 110.182 30.6636 109.528 30.6636H108.507V32.3001H109.528C109.844 32.3001 110.091 32.2247 110.257 32.0814Z" fill="#012C9E"/>
<path d="M115.311 28.8914V32.7375H114.763V31.0256H112.562V32.7375H112.014V28.8914H112.562V30.543H114.763V28.8914H115.311Z" fill="#012C9E"/>
<path d="M119.351 30.5354C119.592 30.7391 119.712 31.0407 119.712 31.4404C119.712 31.8627 119.584 32.1795 119.321 32.4057C119.059 32.6244 118.691 32.7375 118.202 32.7375H116.618V28.8914H117.158V30.2338H118.3C118.758 30.2262 119.111 30.3318 119.351 30.5354ZM118.916 32.0814C119.089 31.9381 119.171 31.727 119.171 31.4555C119.171 30.9276 118.841 30.6636 118.187 30.6636H117.166V32.3001H118.187C118.503 32.3001 118.743 32.2247 118.916 32.0814ZM120.32 28.8914H120.861V32.7375H120.32V28.8914Z" fill="#012C9E"/>
<path d="M122.491 28.8914L123.49 30.3016L124.488 28.8914H125.127L123.828 30.7391L125.232 32.7375H124.586L123.49 31.2066L122.393 32.7375H121.762L123.159 30.7617L121.86 28.8914H122.491Z" fill="#012C9E"/>
<path d="M39.8714 35.4826V39.3288H39.3382V35.9578H37.1152V39.3288H36.5745V35.4826H39.8714Z" fill="#012C9E"/>
<path d="M43.8518 35.8371C44.1372 36.0784 44.2799 36.4027 44.2799 36.8175C44.2799 37.2323 44.1372 37.5641 43.8518 37.7979C43.5664 38.0392 43.1759 38.1523 42.6802 38.1523H41.7339V39.3137H41.1857V35.4676H42.6802C43.1759 35.4827 43.5664 35.6033 43.8518 35.8371ZM43.4613 37.4661C43.6415 37.3152 43.7316 37.1041 43.7316 36.825C43.7316 36.546 43.6415 36.3348 43.4613 36.184C43.281 36.0332 43.0107 35.9578 42.6652 35.9578H41.7339V37.6848H42.6652C43.0107 37.6848 43.2735 37.6094 43.4613 37.4661Z" fill="#012C9E"/>
<path d="M47.5093 38.3635H45.474L45.0534 39.3288H44.4902L46.225 35.4826H46.7657L48.5081 39.3288H47.9298L47.5093 38.3635ZM47.314 37.9261L46.4879 36.0407L45.6618 37.9261H47.314Z" fill="#012C9E"/>
<path d="M50.7311 37.6395H49.935V39.3288H49.4018V35.4826H49.935V37.1569H50.7461L51.9478 35.4826H52.5336L51.1667 37.3454L52.6012 39.3288H51.9703L50.7311 37.6395Z" fill="#012C9E"/>
<path d="M56.3863 35.9578H55.072V39.3288H54.5388V35.9578H53.232V35.4826H56.3863V35.9578Z" fill="#012C9E"/>
<path d="M57.28 35.4826H57.8207V38.4465L60.0888 35.4826H60.592V39.3288H60.0588V36.365L57.7907 39.3288H57.2875V35.4826H57.28Z" fill="#012C9E"/>
<path d="M63.2431 37.6395H62.447V39.3288H61.9138V35.4826H62.447V37.1569H63.2581L64.4597 35.4826H65.0455L63.6786 37.3454L65.1131 39.3288H64.4897L63.2431 37.6395Z" fill="#012C9E"/>
<path d="M31.1671 50H33.8708V10.181H31.1671V50Z" fill="url(#paint1_linear)"/>
<path d="M3.75507 34.0875L33.8708 42.9864V29.4872L3.75507 20.5882V34.0875Z" fill="url(#paint2_linear)"/>
<path d="M0 13.4992L33.8708 23.6802V10.181L0 0L4.05549 7.54148L0 13.4992Z" fill="url(#paint3_linear)"/>
</g>
<defs>
<linearGradient id="paint0_linear" x1="28.9194" y1="18.876" x2="0.223013" y2="28.0507" gradientUnits="userSpaceOnUse">
<stop offset="0.1107" stop-color="#002882"/>
<stop offset="0.3211" stop-color="#0065BE"/>
<stop offset="0.5639" stop-color="#00A8FF"/>
</linearGradient>
<linearGradient id="paint1_linear" x1="44.7688" y1="41.3785" x2="23.3269" y2="21.7838" gradientUnits="userSpaceOnUse">
<stop offset="0.1804" stop-color="#85807E"/>
<stop offset="0.6222" stop-color="#BAA37D"/>
</linearGradient>
<linearGradient id="paint2_linear" x1="2.29976" y1="31.7873" x2="32.4155" y2="31.7873" gradientUnits="userSpaceOnUse">
<stop offset="0.0674685" stop-color="#002882"/>
<stop offset="0.35" stop-color="#0065BE"/>
<stop offset="0.6762" stop-color="#00A8FF"/>
</linearGradient>
<linearGradient id="paint3_linear" x1="-2.40728" y1="5.92338" x2="30.0164" y2="15.7592" gradientUnits="userSpaceOnUse">
<stop offset="0.0674685" stop-color="#002882"/>
<stop offset="0.35" stop-color="#0065BE"/>
<stop offset="0.6762" stop-color="#00A8FF"/>
</linearGradient>
<clipPath id="clip0">
<rect width="125.743" height="50" fill="white"/>
</clipPath>
</defs>
</svg>
