<?xml version="1.0" encoding="utf-8"?>
<!-- Generator: Adobe Illustrator 21.0.0, SVG Export Plug-In . SVG Version: 6.00 Build 0)  -->
<svg version="1.1" id="Layer_1" xmlns="http://www.w3.org/2000/svg" xmlns:xlink="http://www.w3.org/1999/xlink" x="0px" y="0px"
	 viewBox="0 0 100.4 100.4" style="enable-background:new 0 0 100.4 100.4;" xml:space="preserve">
<style type="text/css">
	.st0{fill:#012C9E;}
</style>
<path class="st0" d="M50,6.6C26.1,6.6,6.6,26.1,6.6,50c0,23.9,19.5,43.4,43.4,43.4S93.4,73.9,93.4,50C93.4,26.1,73.9,6.6,50,6.6z
	 M48.5,90.4C27.4,89.6,10.4,72.6,9.6,51.5h11.9C22.3,66,34,77.7,48.5,78.4V90.4z M48.5,75.4c-12.9-0.8-23.2-11.1-23.9-23.9h12.6
	c0.7,5.9,5.4,10.7,11.3,11.3V75.4z M48.5,59.8c-4.3-0.7-7.7-4-8.3-8.3h8.3V59.8z M40.2,48.5c0.7-4.3,4-7.7,8.3-8.3v8.3H40.2z
	 M48.5,37.2c-5.9,0.7-10.7,5.4-11.3,11.3H24.6c0.8-12.9,11.1-23.2,23.9-23.9V37.2z M48.5,21.6C34,22.3,22.3,34,21.6,48.5H9.6
	c0.8-21.1,17.8-38.1,38.9-38.9V21.6z M51.5,9.6c21.1,0.8,38.1,17.8,38.9,38.9H78.4C77.7,34,66,22.3,51.5,21.6V9.6z M59.8,51.5
	c-0.7,4.3-4,7.7-8.3,8.3v-8.3H59.8z M51.5,48.5v-8.3c4.3,0.7,7.7,4,8.3,8.3H51.5z M62.8,51.5h12.6c-0.8,12.9-11.1,23.2-23.9,23.9
	l0-12.6C57.4,62.1,62.2,57.4,62.8,51.5z M51.5,24.6c12.9,0.8,23.2,11.1,23.9,23.9H62.8v0c-0.7-5.9-5.4-10.7-11.3-11.3V24.6z
	 M51.5,90.4V78.4C66,77.7,77.7,66,78.4,51.5h11.9C89.6,72.6,72.6,89.6,51.5,90.4z"/>
</svg>
